<?xml version="1.0" ?><svg style="enable-background:new 0 0 48 48;" version="1.1" viewBox="0 0 48 48" xml:space="preserve" xmlns="http://www.w3.org/2000/svg" xmlns:xlink="http://www.w3.org/1999/xlink"><g id="Padding__x26__Artboard"/><g id="Icons"><g><path d="M37.62479,30.03076c-0.59033-0.38574-1.35742-0.23633-1.74707,0.33984l-0.50537,0.7417V18.4917    c0-3.85742-3.14404-6.99609-7.00879-6.99609h-9.72607c-0.69629,0-1.26318,0.56641-1.26318,1.2627    c0,0.70801,0.55469,1.2627,1.26318,1.2627h9.72607c2.47217,0,4.48291,2.00586,4.48291,4.4707v12.63098l-0.5083-0.75696    c-0.40185-0.57031-1.17334-0.71582-1.76562-0.32812c-0.57031,0.40234-0.71729,1.17383-0.33154,1.76074l2.81494,4.15625    c0.23779,0.33887,0.63721,0.5498,1.0415,0.5498c0.41162,0,0.81543-0.21094,1.05615-0.55469l2.81494-4.15527    C38.35184,31.2124,38.20536,30.44092,37.62479,30.03076z" style="fill:#303030;"/><path d="M29.3621,33.979h-9.71436c-2.47852,0-4.49463-2.00586-4.49463-4.4707V16.86255l0.5166,0.76685    c0.3916,0.57715,1.15967,0.72656,1.75732,0.33301c0.57031-0.40234,0.71729-1.17383,0.33154-1.76074l-2.8125-4.15234    c-0.22754-0.33398-0.61621-0.54883-1.05957-0.52734c-0.42871,0.00391-0.81445,0.20215-1.02881,0.52734l-2.82666,4.15625    c-0.3833,0.58203-0.23682,1.35352,0.35156,1.76855c0.22021,0.13574,0.4668,0.20996,0.69531,0.20996    c0.41895,0,0.80225-0.19922,1.05762-0.55566l0.49121-0.72937V29.5083c0,3.85742,3.1499,6.99609,7.021,6.99609h9.71436    c0.69629,0,1.2627-0.56641,1.2627-1.2627C30.6248,34.53369,30.07011,33.979,29.3621,33.979z" style="fill:#303030;"/></g></g></svg>